/* XPM */
static char * element_icon_xpm[] = {
"32 32 40 1",
" 	c None",
".	c #000000",
"+	c #0B0B0B",
"@	c #B3B3B3",
"#	c #B2B2B2",
"$	c #313131",
"%	c #101010",
"&	c #FFFFFF",
"*	c #4A4A4A",
"=	c #9C9C9C",
"-	c #404040",
";	c #3F3F3F",
">	c #0F0F0F",
",	c #7D7D7D",
"'	c #7C7C7C",
")	c #7B7B7B",
"!	c #AAAAAA",
"~	c #606060",
"{	c #5F5F5F",
"]	c #454545",
"^	c #BFBFBF",
"/	c #BEBEBE",
"(	c #C2C2C2",
"_	c #8F8F8F",
":	c #8E8E8E",
"<	c #686868",
"[	c #797979",
"}	c #0E0E0E",
"|	c #787878",
"1	c #777777",
"2	c #767676",
"3	c #646464",
"4	c #636363",
"5	c #626262",
"6	c #383838",
"7	c #949494",
"8	c #060606",
"9	c #838383",
"0	c #828282",
"a	c #818181",
"................................",
"................................",
"................................",
".......+@@@@@@@@@@@#####$.......",
".......%&&&&&&&&&&&&&&&&*.......",
".......%&&&&&&&&&&&&&&&&*.......",
".......%&&&=----;;;;;;;;%.......",
".......>&&&,....................",
".......>&&&,....................",
".......>&&&'....................",
".......>&&&'....................",
".......>&&&)....................",
".......>&&&)....................",
".......>&&&!~{{{{{{{{{{]........",
".......>&&&&&&&&&&&&&&&^........",
".......>&&&&&&&&&&&&&&&/........",
".......>&&&(______:::::<........",
".......>&&&[....................",
".......}&&&[....................",
".......}&&&|....................",
".......}&&&|....................",
".......}&&&|....................",
".......}&&&1....................",
".......}&&&1....................",
".......}&&&2....................",
".......}&&&!3334444445556.......",
".......}&&&&&&&&&&&&&&&&7.......",
".......}&&&&&&&&&&&&&&&&7.......",
".......8999999900000000a*.......",
"................................",
"................................",
"................................"};
